<svg width="270" height="120" fill="none" xmlns="http://www.w3.org/2000/svg"><rect width="270" height="120" rx="4" fill="#F5F4FA"/><path d="M170 34.9c-.2-.4-.6-.7-1-.8l-4.2-.6-1.8-3.8c-.4-.8-1.7-.8-2.1 0l-2 3.8-4 .6a1.2 1.2 0 00-.7 2l3 3-.7 4.1a1.2 1.2 0 001.7 1.2l3.7-2 3.7 2a1.2 1.2 0 001.7-1.2l-.7-4.2 3-3c.4-.2.5-.7.3-1.1zm-5.4 2.9c-.3.3-.4.7-.4 1l.4 2.5-2.1-1.2a1.2 1.2 0 00-1.1 0l-2.2 1.2.4-2.5c0-.3 0-.7-.3-1l-1.8-1.7 2.4-.4c.4 0 .7-.3 1-.6l1-2.2L163 35c.2.3.5.6.9.6l2.4.4-1.7 1.7zm-7.4 32h-2.4v2.4h2.4V70zm0 4.8h-2.4v2.3h2.4v-2.3zm2.3-2.4h-2.3v2.4h2.3v-2.4zm-4.7 0h-2.3v2.4h2.3v-2.4zM149 82.7h-2.3v2.4h2.3v-2.4zm0 4.7h-2.3v2.3h2.3v-2.3zm2.3-2.3H149v2.3h2.3V85zm-4.6 0h-2.4v2.3h2.4V85zM135 78h-2.3v2.3h2.3V78zm0 4.6h-2.3v2.4h2.3v-2.4zm2.3-2.3H135v2.3h2.3v-2.3zm-4.6 0h-2.4v2.3h2.4v-2.3zm-19.9-42h-2.3v2.3h2.3v-2.3zm0 4.7h-2.3v2.3h2.3V43zm2.4-2.4h-2.4v2.4h2.4v-2.4zm-4.7 0h-2.3v2.4h2.3v-2.4z" fill="#2196F3"/><path d="M154 56a3.9 3.9 0 00-2.5-1.6c-1-.1-2.1.2-3 .8l-2.7 2.1-4.2 3.1-3-1.2a15.2 15.2 0 00-6.2-29 15.2 15.2 0 00-12.7 23.4h-6.5-.1l-7 3.6-4.2 2h-.2a3.9 3.9 0 004 6.7l3-1.6 5-2.5h3l-11.9 11.8-3 3a3.6 3.6 0 000 5 3.6 3.6 0 005.2 0l3-2.8 3.7-2.8 2 2-3.9 3.8-2.9 2.9a3.6 3.6 0 000 5.1 3.6 3.6 0 005.2 0L117 87l4.7-4.7 2.2-2.1 11.3-12.5 7.6 1.1a1.1 1.1 0 00.6 0l.1-.1h.1l7-4.7.1-.1h.1l2.8-2.7a3.9 3.9 0 00.5-5.1zm-49.3 7.9c-.4.2-.8.2-1.3 0a1.6 1.6 0 01-.4-2.7l2.8-1.4.7 2 .3 1-2.1 1zm7.6-4l-3.4 1.7-.5-1.6-.4-1.2 4.4-2.2V60zm33-14.5c0 2-.4 3.9-1.3 5.6l-9.1-4.2a4 4 0 00-1.7-3l3.2-10.6c5.2 1.6 9 6.5 9 12.2zm-25.7 0A12.9 12.9 0 01134 32.7L130.9 43a4 4 0 00-4.2 4 4 4 0 007.7 2l8.4 3.9a12.9 12.9 0 01-23.2-7.6zm13 1.7c0 1-.8 1.8-1.8 1.8s-1.7-.8-1.7-1.8a1.8 1.8 0 013.5 0zm-27.2 33c-.5.4-1.4.4-1.9 0a1.3 1.3 0 010-2l2.1-2 1.9 1.8-2.1 2.1zm7 8c-.5.6-1.3.6-1.8 0a1.3 1.3 0 010-1.8l2-2 1 .8 1 1-2.2 2zm7.6-7.5l-3.8 3.8-1-.8-.9-1 3.9-3.9.2-.3V78l.1-.2v-.2-.2l-.3-.3V77l-3.5-3.5h-.2c0-.1 0-.2-.2-.2h-.2l-.2-.1h-.2-.2l-.2.1h-.2l-3.8 3-2-2 5.2-5.2 9.6 9.4-2 2zm15-15.4h-.1a1.2 1.2 0 00-.9.3v.1L123.6 77l-9.5-9.3 6.2-6.2a1.2 1.2 0 00-.8-2h-4.9V56h6.8a15.2 15.2 0 0013.7 4.4l.3.2 5.3 2 .3 1.7.4 2-6.5-1zm8.8.4l-.7-3.4 3.2-2.3.8 1 1.2 1.7-4.5 3zm8.2-6.2l-1.8 1.8-2-2.8 1.8-1.3c.3-.3.7-.4 1.1-.4a1.6 1.6 0 011 2.7z" fill="#212121"/><path d="M129.8 65.6l-4.7-4.7c-.5-.5-1.2-.5-1.7 0l-4.7 4.7a1.2 1.2 0 000 1.6l4.7 4.7a1.2 1.2 0 001.7 0l4.7-4.7a1.2 1.2 0 000-1.6zm-5.6 3.8l-3-3 3-3 3 3-3 3zm13.3-33.3l-.5 2.3c.1 0 3.8 1 3.8 4.7h2.3c0-4.5-3.6-6.5-5.6-7zm5.6 9.3h-2.3v2.3h2.3v-2.3z" fill="#212121"/></svg>