<svg width="270" height="120" fill="none" xmlns="http://www.w3.org/2000/svg"><rect width="270" height="120" rx="4" fill="#F5F4FA"/><g clip-path="url(#clip0)"><path d="M132.7 57.7h2.3v10.5h-2.4V57.7zm9.3 4.7h2.3v5.8H142v-5.8zm-18.7 3.5h2.4v2.3h-2.4V66zm-7-1.2h2.4v3.5h-2.4v-3.5z" fill="#2196F3"/><path d="M103.5 86.9h56c1.9 0 3.5-1.6 3.5-3.5v-4.7c0-2-1.6-3.5-3.5-3.5h-1.2v-29l6.6-6.3a3.5 3.5 0 10-1.6-1.7l-5 4.7v-2.7c0-1.9-1.6-3.5-3.5-3.5h-46.6c-2 0-3.5 1.6-3.5 3.5v35h-1.2c-2 0-3.5 1.6-3.5 3.5v4.7c0 2 1.6 3.5 3.5 3.5zm63-51.3a1.2 1.2 0 110 2.3 1.2 1.2 0 010-2.3zM107 40.2c0-.6.5-1.1 1.2-1.1h46.6c.6 0 1.2.5 1.2 1.1v5l-2.4 2.2v-4.8c0-.7-.5-1.2-1.1-1.2h-42c-.6 0-1.2.5-1.2 1.2v29.1c0 .7.6 1.2 1.2 1.2h42c.6 0 1.1-.5 1.1-1.2V50.6l2.4-2.2v26.8h-49v-35zm10.5 15.2a3.5 3.5 0 102.4 6l4 2c.5.3 1.1.2 1.5-.2l8.6-9.7 8.4 6.3c.5.4 1.1.3 1.5 0l7.4-7v17.8h-39.6V43.7h39.6v5.9l-8.2 7.8-8.6-6.4c-.5-.4-1.2-.3-1.6.1l-8.7 9.9-3.3-1.7V59c0-2-1.5-3.5-3.4-3.5zm1.2 3.5a1.2 1.2 0 11-2.4 0 1.2 1.2 0 012.4 0zm7 18.7h11.6v1.1c0 .7-.5 1.2-1.2 1.2h-9.3c-.6 0-1.1-.5-1.1-1.2v-1.1zm-23.4 1.1c0-.6.6-1.1 1.2-1.1h19.8v1.1c0 2 1.6 3.5 3.5 3.5h9.3c2 0 3.5-1.5 3.5-3.5v-1.1h19.9c.6 0 1.1.5 1.1 1.1v4.7c0 .6-.5 1.2-1.1 1.2h-56c-.6 0-1.2-.6-1.2-1.2v-4.7z" fill="#212121"/></g><defs><clipPath id="clip0"><path fill="#fff" transform="translate(100 25)" d="M0 0h70v70H0z"/></clipPath></defs></svg>