<svg width="270" height="120" fill="none" xmlns="http://www.w3.org/2000/svg"><rect width="270" height="120" rx="4" fill="#F5F4FA"/><g clip-path="url(#clip0)"><path d="M168.5 58.5a33.5 33.5 0 10-43.3 32c.3 0 .5-.1.8-.3.3-.1.5-.4.6-.8l8.4-26.7a4.2 4.2 0 10-1.8-8L122 43.5a1.4 1.4 0 00-2 2l11.2 11.2a4.1 4.1 0 001.2 5l-8 25.6a30.7 30.7 0 1123-.8l-.8-4.1a1.4 1.4 0 00-2.3-.8l-8.4 7.5a1.4 1.4 0 00.5 2.4l10.7 3.4a1.4 1.4 0 001.8-1.6l-.8-4a33.4 33.4 0 0020.4-30.8zM135 57a1.4 1.4 0 110 2.8 1.4 1.4 0 010-2.8zm4.6 32.5l4.8-4.3 1.3 6.2-6.1-2z" fill="#212121"/><path d="M133.6 32v2.8a1.4 1.4 0 102.8 0V32a1.4 1.4 0 00-2.8 0zm-25.1 25a1.4 1.4 0 100 2.9h2.8a1.4 1.4 0 000-2.8h-2.8zm53 2.9a1.4 1.4 0 000-2.8h-2.8a1.4 1.4 0 000 2.8h2.8z" fill="#2196F3"/></g><defs><clipPath id="clip0"><path fill="#fff" transform="translate(100 25)" d="M0 0h70v70H0z"/></clipPath></defs></svg>